<svg width="93" height="50" viewBox="0 0 93 50" fill="none" xmlns="http://www.w3.org/2000/svg">
<path d="M31.8442 12.6189L41.5649 37.8259H37.9614L30.0513 17.3122L25.7271 28.4216L22.1235 37.8259H18.52L28.2407 12.6189H31.8442Z" fill="#1D1F21"/>
<path d="M52.9999 12.6189H56.5859V37.8259H52.9999V12.6189Z" fill="#1D1F21"/>
<path d="M43.2616 37.8259L33.5409 12.6189H37.1445L45.0546 33.1325L49.3788 22.0232L52.9823 12.6189H56.5859L46.8652 37.8259H43.2616Z" fill="#1D1F21"/>
<path d="M70.523 32.8437C69.6206 33.7461 68.3315 34.1973 66.6558 34.1973H57.9625V37.8008H66.6558C68.0034 37.8008 69.2163 37.5957 70.2944 37.1855C71.3843 36.7637 72.3101 36.1719 73.0718 35.4102C73.8452 34.6367 74.437 33.7051 74.8472 32.6152C75.2691 31.5254 75.48 30.3125 75.48 28.9766V21.418C75.48 20.082 75.2691 18.8691 74.8472 17.7793C74.437 16.6895 73.8452 15.7637 73.0718 15.002C72.3101 14.2285 71.3843 13.6367 70.2944 13.2266C69.2163 12.8047 68.0034 12.5938 66.6558 12.5938L57.9625 12.594V16.1973H66.6558C67.4761 16.1973 68.2085 16.3145 68.853 16.5488C69.4976 16.7832 70.0425 17.1289 70.4878 17.5859C70.9448 18.0312 71.2905 18.5762 71.5249 19.2207C71.7593 19.8652 71.8765 20.5977 71.8765 21.418V28.9766C71.8765 30.6523 71.4253 31.9414 70.523 32.8437Z" fill="#1D1F21"/>
<path d="M26.3281 26.8589L25.1097 30.0326H31.075L32.2989 26.8589H26.3281Z" fill="#1D1F21"/>
</svg>
